<?xml version="1.0" encoding="utf-8"?>
<!-- Generator: Adobe Illustrator 25.2.1, SVG Export Plug-In . SVG Version: 6.00 Build 0)  -->
<svg version="1.1" id="Layer_1" xmlns="http://www.w3.org/2000/svg" xmlns:xlink="http://www.w3.org/1999/xlink" x="0px" y="0px"
	 viewBox="0 0 416.5 109.5" style="enable-background:new 0 0 416.5 109.5;" xml:space="preserve">
<style type="text/css">
	.st0{fill:#00253D;}
	.st1{fill:#FFFFFF;}
	.st2{fill:#99AECC;}
	.st3{fill:#98C000;}
</style>
<rect x="-37" y="226.9" class="st0" width="768" height="768"/>
<g>
	<g>
		<path class="st1" d="M138.8,709.6c11-3.9,19.3-11.4,25.7-21.6c7.7-12.7,16.5-25.3,26.1-37.8c9.4-11.8,21.7-22.4,37.5-31.6
			c-8.9,14.4-16.3,28.3-21.5,41.5c-3.6,9.2-7.7,17.1-12.1,23.3c-10.5,16.1-22.4,24.9-35.8,26.6C148.8,710.8,141.8,710.8,138.8,709.6
			z"/>
		<path class="st2" d="M199.3,688.3c4.9-5.2,9-12.1,12.3-20.9c14.2,10.7,20.4,26.6,21.3,46.1C224.1,703.1,213.1,694.5,199.3,688.3z"
			/>
		<path class="st2" d="M168.6,667.4c3.5-7,8.5-13.9,15.3-20.5c-12.6-13.5-21.8-27.2-1.4-42.8C148.5,617.1,144.9,638.5,168.6,667.4z"
			/>
		<path class="st3" d="M190.4,607.8c-9.4,5.2-13.1,12-8.9,21c0.1,0.1,0.1,0.2,0.2,0.4c3.6,6.3,8.4,6.2,14.3,1
			c11.5-10.5,22.2-17.8,32.1-21.2C216.4,602.9,203.8,602.4,190.4,607.8z"/>
	</g>
	<g>
		<g>
			<path class="st1" d="M259.2,668.6c0,8.4-1.8,14.5-12.1,14.5c-2,0-3.8-0.2-4.9-0.4v-7c0.9,0.1,2.1,0.2,3.5,0.2
				c4.4,0,5.1-2.3,5.1-6.8v-40.9h8.4V668.6z"/>
			<path class="st1" d="M295.7,670.6c0,5.7,0,9.7,0.1,11.8h-7.9c-0.2-1.2-0.3-3-0.4-4.8c-1.7,3.9-4.8,5.5-9.4,5.5
				c-5.5,0-10.3-2.6-10.3-12.3v-29.5h8.3v27.6c0,4.5,1.1,7,4.9,7c3.9,0,6.3-2.2,6.3-9.5v-25.1h8.3V670.6z"/>
			<path class="st1" d="M304.5,625.5h8.3v20.3c1.4-2.8,4.1-5.3,9.3-5.3c8.2,0,12,7.1,12,20.2c0,12.9-3.3,22.3-13.2,22.3
				c-5.3,0-7.3-2.6-8.4-5c0,1.1-0.1,2.9-0.2,4.3h-7.9c0.1-2.5,0.1-7,0.1-11.5V625.5z M325.8,660.9c0-8.7-1.6-13.2-6.4-13.2
				c-5.2,0-6.9,4.1-6.9,14.3c0,9.7,1.4,14,6.5,14C323.8,676,325.8,671.4,325.8,660.9z"/>
			<path class="st1" d="M340.9,641.2h8.3v41.1h-8.3V641.2z M341,625.5h8.3v9.1H341V625.5z"/>
			<path class="st1" d="M358.1,682.4v-56.9h8.3v56.9H358.1z"/>
			<path class="st1" d="M381.7,663.8c0,6.2,0.9,12.4,6.6,12.4c5.3,0,6-4.7,6.2-6.1h8c-0.1,1.2-1.1,13-14.3,13
				c-12.9,0-14.7-11.2-14.7-21.5c0-13,4.8-21.1,15-21.1c11.6,0,14.4,8.9,14.4,19.5c0,1.2-0.1,3-0.1,3.8H381.7z M394.5,657.7
				c0-5-0.8-10.3-6.2-10.3c-6.1,0-6.5,7.3-6.5,10.3H394.5z"/>
			<path class="st1" d="M415.8,663.8c0,6.2,0.9,12.4,6.6,12.4c5.3,0,6-4.7,6.2-6.1h8c-0.1,1.2-1.1,13-14.3,13
				c-12.9,0-14.7-11.2-14.7-21.5c0-13,4.8-21.1,15-21.1c11.6,0,14.4,8.9,14.4,19.5c0,1.2-0.1,3-0.1,3.8H415.8z M428.7,657.7
				c0-5-0.8-10.3-6.2-10.3c-6.1,0-6.5,7.3-6.5,10.3H428.7z"/>
			<path class="st1" d="M459.8,627.9h4.6v23.5h19.3v-23.5h4.6v54.4h-4.6v-26.7h-19.3v26.7h-4.6V627.9z"/>
			<path class="st1" d="M521.1,675.9c0,2.7,0.2,5.4,0.3,6.5h-4.1c-0.2-0.9-0.4-3.2-0.4-4.9c-1.5,3.6-4.6,5.6-9.7,5.6
				c-7.7,0-10.4-6-10.4-11.5c0-7,4.7-12.8,15.4-12.8c2.1,0,3.3,0,4.5,0.1v-5.7c0-3.4-0.7-7.9-6.7-7.9c-6.7,0-7,4.9-7.3,7.6h-4.4
				c0.2-5.7,2.9-11.5,11.8-11.5c7.5,0,11,3.7,11,11.1V675.9z M516.8,662.8c-1-0.2-2.2-0.2-4.4-0.2c-7.9,0-11.2,3.8-11.2,8.7
				c0,4.2,2.2,7.8,6.9,7.8c6.3,0,8.6-4.4,8.6-13.8V662.8z"/>
			<path class="st1" d="M531.2,682.4v-57h4.5v57H531.2z"/>
			<path class="st1" d="M545.8,682.4v-57h4.5v57H545.8z"/>
		</g>
	</g>
</g>
<g>
	<g>
		<path class="st1" d="M167.4,499.5c11-3.9,19.3-11.4,25.7-21.6c7.7-12.7,16.5-25.3,26.1-37.8c9.4-11.8,21.7-22.4,37.5-31.6
			c-8.9,14.4-16.3,28.3-21.5,41.5c-3.6,9.2-7.7,17.1-12.1,23.3c-10.5,16.1-22.4,24.9-35.8,26.6C177.4,500.7,170.4,500.7,167.4,499.5
			z"/>
		<path class="st2" d="M227.9,478.2c4.9-5.2,9-12.1,12.3-20.9c14.2,10.7,20.4,26.6,21.3,46.1C252.7,493,241.7,484.4,227.9,478.2z"/>
		<path class="st2" d="M197.3,457.4c3.5-7,8.5-13.9,15.3-20.5c-12.6-13.5-21.8-27.2-1.4-42.8C177.1,407.1,173.5,428.5,197.3,457.4z"
			/>
		<path class="st3" d="M219.1,397.8c-9.4,5.2-13.1,12-8.9,21c0.1,0.1,0.1,0.2,0.2,0.4c3.6,6.3,8.4,6.2,14.3,1
			c11.5-10.5,22.2-17.8,32.1-21.2C245,392.8,232.5,392.4,219.1,397.8z"/>
	</g>
	<g>
		<g>
			<g>
				<g>
					<path class="st1" d="M292,432.9c0,6.7-1.6,11.2-9.7,11.2c-1.6,0-3-0.2-3.9-0.3v-6c0.7,0.1,1.6,0.2,2.6,0.2
						c3.2,0,3.7-1.5,3.7-4.6V403h7.3V432.9z"/>
					<path class="st1" d="M319.9,434.5c0,4.5,0,7.5,0.1,9.1h-6.8c-0.2-0.9-0.2-2.3-0.3-3.4c-1.4,2.9-3.6,3.9-6.9,3.9
						c-4.4,0-7.8-2.2-7.8-9.3v-22.3h7.2v20.7c0,3.1,0.6,4.8,3.2,4.8c2.7,0,4.1-1.5,4.1-6.4v-19.1h7.2V434.5z"/>
					<path class="st1" d="M326.2,401h7.2v14.7c1.1-1.9,3.1-3.6,6.9-3.6c6.4,0,9.1,5.6,9.1,15.2c0,9.8-2.4,16.9-10,16.9
						c-4,0-5.3-2-6.2-3.5c0,0.7-0.1,2.1-0.1,3h-6.8c0.1-2.1,0.1-5.6,0.1-8.7V401z M342.1,427.4c0-6-0.9-9.3-4.4-9.3
						c-3.5,0-4.6,2.5-4.6,10.1c0,7.3,1,9.9,4.4,9.9C340.9,438.1,342.1,434.9,342.1,427.4z"/>
					<path class="st1" d="M354.2,412.5h7.2v31.1h-7.2V412.5z M354.2,401h7.2v7.1h-7.2V401z"/>
					<path class="st1" d="M367.7,443.6V401h7.2v42.6H367.7z"/>
					<path class="st1" d="M386.9,429.9c0,3.9,0.5,8.3,4.5,8.3c3.6,0,4-3,4.2-4.1h6.9c-0.1,1-0.8,10-11.1,10
						c-10.1,0-11.5-8.5-11.5-16.3c0-9.8,3.7-15.9,11.6-15.9c9,0,11.2,6.7,11.2,14.8c0,1.1-0.1,2.5-0.1,3.1H386.9z M395.6,424.7
						c0-3-0.4-6.9-4.2-6.9c-4.1,0-4.4,4.6-4.4,6.9H395.6z"/>
					<path class="st1" d="M413.2,429.9c0,3.9,0.5,8.3,4.5,8.3c3.6,0,4-3,4.2-4.1h6.9c-0.1,1-0.8,10-11.1,10
						c-10.1,0-11.5-8.5-11.5-16.3c0-9.8,3.7-15.9,11.6-15.9c9,0,11.2,6.7,11.2,14.8c0,1.1-0.1,2.5-0.1,3.1H413.2z M421.9,424.7
						c0-3-0.4-6.9-4.2-6.9c-4.1,0-4.4,4.6-4.4,6.9H421.9z"/>
					<path class="st1" d="M445.3,403h7.3v16h9.8v-16h7.3v40.6h-7.3v-18.2h-9.8v18.2h-7.3V403z"/>
					<path class="st1" d="M496.8,436.8c0,1.5,0.1,5.4,0.2,6.8h-6.5c-0.1-0.6-0.3-2-0.3-2.9c-1.2,2-3.2,3.4-7,3.4
						c-6,0-8.3-4.8-8.3-9.2c0-6.4,4.4-10.2,12.2-10.2c1,0,1.8,0,2.5,0.1v-3.4c0-1.8-0.2-3.9-3.3-3.9c-3,0-3.3,2-3.5,4h-6.8
						c0.1-4.6,2.3-9.5,10.6-9.5c6.7,0,10.1,3,10.1,9V436.8z M489.9,430c-0.7-0.1-1.4-0.1-2.3-0.1c-4.1,0-5.6,1.9-5.6,4.4
						c0,1.9,0.9,4,3.6,4c3.7,0,4.3-2.7,4.3-7.3V430z"/>
					<path class="st1" d="M503.1,443.6V401h7.2v42.6H503.1z"/>
					<path class="st1" d="M516.6,443.6V401h7.2v42.6H516.6z"/>
				</g>
			</g>
		</g>
		<g>
			<g>
				<g>
					<path class="st1" d="M290.5,451.2H278v-3.5h29v3.5h-12.5v38h-4V451.2z"/>
					<path class="st1" d="M311.8,469.3c0-4.8-0.1-9-0.1-10.3h3.8c0.1,1.5,0.1,3.4,0.1,6.4c1.6-4.2,5.2-6.9,10-7v4.1
						c-7,0.4-9.9,5.1-9.9,11.4v15.3h-3.8V469.3z"/>
					<path class="st1" d="M352.7,480.8c0,3.6,0.1,7,0.1,8.4h-3.7c-0.2-0.8-0.2-2.9-0.2-5.2c-1.2,3.3-4.4,5.8-9.1,5.8
						c-4.2,0-9.2-1.7-9.2-10.3V459h3.8v19.6c0,4.2,1.3,7.7,6.4,7.7c4.7,0,8-3.2,8-10.4V459h3.9V480.8z"/>
					<path class="st1" d="M362.8,480.7c0.7,3.8,3.5,5.9,7.4,5.9c4.7,0,6.4-2.7,6.4-5.5c0-3-2-4.7-7.3-6.1c-7.1-1.9-9.1-4.5-9.1-8.5
						c0-4.1,2.9-8.1,9.6-8.1c7,0,9.6,4,10.1,8.5h-3.8c-0.6-2.8-2-5.4-6.5-5.4c-3.9,0-5.6,1.9-5.6,4.7c0,2.5,1.1,3.9,6.5,5.3
						c7.5,2,9.9,4.5,9.9,9.3c0,5.4-4.2,8.9-10.4,8.9c-5.8,0-10.5-2.8-11.1-9.1H362.8z"/>
					<path class="st1" d="M382.8,459h5.1v-9h3.8v9h6.4v3.3h-6.4v20.2c0,2.7,0.7,3.8,3.3,3.8c0.9,0,1.9-0.1,2.5-0.2v3
						c-1,0.4-2.6,0.5-3.6,0.5c-3.8,0-6-1.4-6-6.2v-21.1h-5.1V459z"/>
				</g>
			</g>
		</g>
	</g>
</g>
<g>
	<g>
		<path class="st1" d="M0,105.5c11-3.9,19.3-11.4,25.7-21.6c7.7-12.7,16.5-25.3,26.1-37.8c9.4-11.8,21.7-22.4,37.5-31.6
			C80.4,28.9,73,42.8,67.8,56c-3.6,9.2-7.7,17.1-12.1,23.3C45.2,95.4,33.3,104.3,19.9,106C10,106.7,3,106.7,0,105.5z"/>
		<path class="st2" d="M60.5,84.2c4.9-5.2,9-12.1,12.3-20.9C87,74,93.2,90,94.1,109.5C85.3,99,74.3,90.4,60.5,84.2z"/>
		<path class="st2" d="M29.9,63.4c3.5-7,8.5-13.9,15.3-20.5C32.5,29.3,23.3,15.6,43.7,0C9.7,13.1,6.1,34.5,29.9,63.4z"/>
		<path class="st3" d="M51.7,3.8c-9.4,5.2-13.1,12-8.9,21c0.1,0.1,0.1,0.2,0.2,0.4c3.6,6.3,8.4,6.2,14.3,1
			C68.7,15.6,79.5,8.3,89.3,5C77.6-1.2,65-1.6,51.7,3.8z"/>
	</g>
	<g>
		<g>
			<path class="st1" d="M120.4,64.5c0,8.4-1.8,14.5-12.1,14.5c-2,0-3.8-0.2-4.9-0.4v-7c0.9,0.1,2.1,0.2,3.5,0.2
				c4.4,0,5.1-2.3,5.1-6.8V24.1h8.4V64.5z"/>
			<path class="st1" d="M156.9,66.5c0,5.7,0,9.7,0.1,11.8h-7.9c-0.2-1.2-0.3-3-0.4-4.8c-1.7,3.9-4.8,5.5-9.4,5.5
				c-5.5,0-10.3-2.6-10.3-12.3V37.2h8.3v27.6c0,4.5,1.1,7,4.9,7c3.9,0,6.3-2.2,6.3-9.5V37.2h8.3V66.5z"/>
			<path class="st1" d="M165.7,21.4h8.3v20.3c1.4-2.8,4.1-5.3,9.3-5.3c8.2,0,12,7.1,12,20.2c0,12.9-3.3,22.3-13.2,22.3
				c-5.3,0-7.3-2.6-8.4-5c0,1.1-0.1,2.9-0.2,4.3h-7.9c0.1-2.5,0.1-7,0.1-11.5V21.4z M187,56.8c0-8.7-1.6-13.2-6.4-13.2
				c-5.2,0-6.9,4.1-6.9,14.3c0,9.7,1.4,14,6.5,14C185,71.9,187,67.3,187,56.8z"/>
			<path class="st1" d="M202.2,37.2h8.3v41.1h-8.3V37.2z M202.2,21.4h8.3v9.1h-8.3V21.4z"/>
			<path class="st1" d="M219.4,78.3V21.4h8.3v56.9H219.4z"/>
			<path class="st1" d="M242.9,59.7c0,6.2,0.9,12.4,6.6,12.4c5.3,0,6-4.7,6.2-6.1h8c-0.1,1.2-1.1,13-14.3,13
				c-12.9,0-14.7-11.2-14.7-21.5c0-13,4.8-21.1,15-21.1c11.6,0,14.4,8.9,14.4,19.5c0,1.2-0.1,3-0.1,3.8H242.9z M255.8,53.6
				c0-5-0.8-10.3-6.2-10.3c-6.1,0-6.5,7.3-6.5,10.3H255.8z"/>
			<path class="st1" d="M277.1,59.7c0,6.2,0.9,12.4,6.6,12.4c5.3,0,6-4.7,6.2-6.1h8c-0.1,1.2-1.1,13-14.3,13
				c-12.9,0-14.7-11.2-14.7-21.5c0-13,4.8-21.1,15-21.1c11.6,0,14.4,8.9,14.4,19.5c0,1.2-0.1,3-0.1,3.8H277.1z M289.9,53.6
				c0-5-0.8-10.3-6.2-10.3c-6.1,0-6.5,7.3-6.5,10.3H289.9z"/>
			<path class="st1" d="M321,23.9h4.6v23.5h19.3V23.9h4.6v54.4h-4.6V51.5h-19.3v26.7H321V23.9z"/>
			<path class="st1" d="M382.3,71.8c0,2.7,0.2,5.4,0.3,6.5h-4.1c-0.2-0.9-0.4-3.2-0.4-4.9c-1.5,3.6-4.6,5.6-9.7,5.6
				c-7.7,0-10.4-6-10.4-11.5c0-7,4.7-12.8,15.4-12.8c2.1,0,3.3,0,4.5,0.1v-5.7c0-3.4-0.7-7.9-6.7-7.9c-6.7,0-7,4.9-7.3,7.6h-4.4
				c0.2-5.7,2.9-11.5,11.8-11.5c7.5,0,11,3.7,11,11.1V71.8z M378.1,58.7c-1-0.2-2.2-0.2-4.4-0.2c-7.9,0-11.2,3.8-11.2,8.7
				c0,4.2,2.2,7.8,6.9,7.8c6.3,0,8.6-4.4,8.6-13.8V58.7z"/>
			<path class="st1" d="M392.4,78.3v-57h4.5v57H392.4z"/>
			<path class="st1" d="M407,78.3v-57h4.5v57H407z"/>
		</g>
	</g>
</g>
<g>
	<g>
		<path class="st1" d="M28.6-104.6c11-3.9,19.3-11.4,25.7-21.6c7.7-12.7,16.5-25.3,26.1-37.8c9.4-11.8,21.7-22.4,37.5-31.6
			c-8.9,14.4-16.3,28.3-21.5,41.5c-3.6,9.2-7.7,17.1-12.1,23.3c-10.5,16.1-22.4,24.9-35.8,26.6C38.6-103.3,31.6-103.4,28.6-104.6z"
			/>
		<path class="st2" d="M89.2-125.9c4.9-5.2,9-12.1,12.3-20.9c14.2,10.7,20.4,26.6,21.3,46.1C113.9-111.1,102.9-119.7,89.2-125.9z"/>
		<path class="st2" d="M58.5-146.7c3.5-7,8.5-13.9,15.3-20.5c-12.6-13.5-21.8-27.2-1.4-42.8C38.3-197,34.8-175.6,58.5-146.7z"/>
		<path class="st3" d="M80.3-206.3c-9.4,5.2-13.1,12-8.9,21c0.1,0.1,0.1,0.2,0.2,0.4c3.6,6.3,8.4,6.2,14.3,1
			c11.5-10.5,22.2-17.8,32.1-21.2C106.2-211.3,93.7-211.7,80.3-206.3z"/>
	</g>
	<g>
		<g>
			<g>
				<g>
					<path class="st1" d="M153.2-171.1c0,6.7-1.6,11.2-9.7,11.2c-1.6,0-3-0.2-3.9-0.3v-6c0.7,0.1,1.6,0.2,2.6,0.2
						c3.2,0,3.7-1.5,3.7-4.6v-30.3h7.3V-171.1z"/>
					<path class="st1" d="M181.2-169.6c0,4.5,0,7.5,0.1,9.1h-6.8c-0.2-0.9-0.2-2.3-0.3-3.4c-1.4,2.9-3.6,3.9-6.9,3.9
						c-4.4,0-7.8-2.2-7.8-9.3v-22.3h7.2v20.7c0,3.1,0.6,4.8,3.2,4.8c2.7,0,4.1-1.5,4.1-6.4v-19.1h7.2V-169.6z"/>
					<path class="st1" d="M187.4-203.1h7.2v14.7c1.1-1.9,3.1-3.6,6.9-3.6c6.4,0,9.1,5.6,9.1,15.2c0,9.8-2.4,16.9-10,16.9
						c-4,0-5.3-2-6.2-3.5c0,0.7-0.1,2.1-0.1,3h-6.8c0.1-2.1,0.1-5.6,0.1-8.7V-203.1z M203.4-176.7c0-6-0.9-9.3-4.4-9.3
						c-3.5,0-4.6,2.5-4.6,10.1c0,7.3,1,9.9,4.4,9.9C202.1-166,203.4-169.2,203.4-176.7z"/>
					<path class="st1" d="M215.4-191.5h7.2v31.1h-7.2V-191.5z M215.4-203.1h7.2v7.1h-7.2V-203.1z"/>
					<path class="st1" d="M228.9-160.5v-42.6h7.2v42.6H228.9z"/>
					<path class="st1" d="M248.2-174.1c0,3.9,0.5,8.3,4.5,8.3c3.6,0,4-3,4.2-4.1h6.9c-0.1,1-0.8,10-11.1,10
						c-10.1,0-11.5-8.5-11.5-16.3c0-9.8,3.7-15.9,11.6-15.9c9,0,11.2,6.7,11.2,14.8c0,1.1-0.1,2.5-0.1,3.1H248.2z M256.8-179.3
						c0-3-0.4-6.9-4.2-6.9c-4.1,0-4.4,4.6-4.4,6.9H256.8z"/>
					<path class="st1" d="M274.4-174.1c0,3.9,0.5,8.3,4.5,8.3c3.6,0,4-3,4.2-4.1h6.9c-0.1,1-0.8,10-11.1,10
						c-10.1,0-11.5-8.5-11.5-16.3c0-9.8,3.7-15.9,11.6-15.9c9,0,11.2,6.7,11.2,14.8c0,1.1-0.1,2.5-0.1,3.1H274.4z M283.1-179.3
						c0-3-0.4-6.9-4.2-6.9c-4.1,0-4.4,4.6-4.4,6.9H283.1z"/>
					<path class="st1" d="M306.5-201.1h7.3v16h9.8v-16h7.3v40.6h-7.3v-18.2h-9.8v18.2h-7.3V-201.1z"/>
					<path class="st1" d="M358-167.2c0,1.5,0.1,5.4,0.2,6.8h-6.5c-0.1-0.6-0.3-2-0.3-2.9c-1.2,2-3.2,3.4-7,3.4c-6,0-8.3-4.8-8.3-9.2
						c0-6.4,4.4-10.2,12.2-10.2c1,0,1.8,0,2.5,0.1v-3.4c0-1.8-0.2-3.9-3.3-3.9c-3,0-3.3,2-3.5,4h-6.8c0.1-4.6,2.3-9.5,10.6-9.5
						c6.7,0,10.1,3,10.1,9V-167.2z M351.1-174.1c-0.7-0.1-1.4-0.1-2.3-0.1c-4.1,0-5.6,1.9-5.6,4.4c0,1.9,0.9,4,3.6,4
						c3.7,0,4.3-2.7,4.3-7.3V-174.1z"/>
					<path class="st1" d="M364.4-160.5v-42.6h7.2v42.6H364.4z"/>
					<path class="st1" d="M377.9-160.5v-42.6h7.2v42.6H377.9z"/>
				</g>
			</g>
		</g>
		<g>
			<g>
				<g>
					<path class="st1" d="M151.7-152.9h-12.5v-3.5h29v3.5h-12.5v38h-4V-152.9z"/>
					<path class="st1" d="M173-134.8c0-4.8-0.1-9-0.1-10.3h3.8c0.1,1.5,0.1,3.4,0.1,6.4c1.6-4.2,5.2-6.9,10-7v4.1
						c-7,0.4-9.9,5.1-9.9,11.4v15.3H173V-134.8z"/>
					<path class="st1" d="M213.9-123.3c0,3.6,0.1,7,0.1,8.4h-3.7c-0.2-0.8-0.2-2.9-0.2-5.2c-1.2,3.3-4.4,5.8-9.1,5.8
						c-4.2,0-9.2-1.7-9.2-10.3v-20.4h3.8v19.6c0,4.2,1.3,7.7,6.4,7.7c4.7,0,8-3.2,8-10.4v-16.9h3.9V-123.3z"/>
					<path class="st1" d="M224-123.4c0.7,3.8,3.5,5.9,7.4,5.9c4.7,0,6.4-2.7,6.4-5.5c0-3-2-4.7-7.3-6.1c-7.1-1.9-9.1-4.5-9.1-8.5
						c0-4.1,2.9-8.1,9.6-8.1c7,0,9.6,4,10.1,8.5h-3.8c-0.6-2.8-2-5.4-6.5-5.4c-3.9,0-5.6,1.9-5.6,4.7c0,2.5,1.1,3.9,6.5,5.3
						c7.5,2,9.9,4.5,9.9,9.3c0,5.4-4.2,8.9-10.4,8.9c-5.8,0-10.5-2.8-11.1-9.1H224z"/>
					<path class="st1" d="M244-145.1h5.1v-9h3.8v9h6.4v3.3h-6.4v20.2c0,2.7,0.7,3.8,3.3,3.8c0.9,0,1.9-0.1,2.5-0.2v3
						c-1,0.4-2.6,0.5-3.6,0.5c-3.8,0-6-1.4-6-6.2v-21.1H244V-145.1z"/>
				</g>
			</g>
		</g>
	</g>
</g>
</svg>
